<svg class="nav__icon" xmlns="http://www.w3.org/2000/svg">
                                      <path fill-rule="evenodd" clip-rule="evenodd" d="M8.759 1.5H14a1 1 0 0 1 .707.293l6 6A1 1 0 0 1 21 8.5v9.241c0 .805 0 1.47-.044 2.01-.046.563-.145 1.08-.392 1.565a4 4 0 0 1-1.748 1.748c-.485.247-1.002.346-1.564.392-.541.044-1.206.044-2.01.044H8.758c-.805 0-1.47 0-2.01-.044-.563-.046-1.08-.145-1.565-.392a4 4 0 0 1-1.748-1.748c-.247-.485-.346-1.002-.392-1.564C3 19.21 3 18.546 3 17.742V7.258c0-.805 0-1.47.044-2.01.046-.563.145-1.08.392-1.565a4 4 0 0 1 1.748-1.748c.485-.247 1.002-.346 1.564-.392C7.29 1.5 7.954 1.5 8.758 1.5ZM6.91 3.538c-.438.035-.663.1-.819.18a2 2 0 0 0-.874.874c-.08.156-.145.38-.18.819C5 5.861 5 6.443 5 7.3v10.4c0 .857 0 1.439.038 1.889.035.438.1.663.18.819a2 2 0 0 0 .874.874c.156.08.38.145.819.18.45.037 1.032.038 1.889.038h6.4c.857 0 1.439 0 1.889-.038.438-.035.663-.1.819-.18a2 2 0 0 0 .874-.874c.08-.156.145-.38.18-.819.037-.45.038-1.032.038-1.889V9.5h-3.432c-.252 0-.498 0-.706-.017a2.022 2.022 0 0 1-.77-.2 2 2 0 0 1-.874-.875 2.022 2.022 0 0 1-.201-.77C13 7.43 13 7.184 13 6.932V3.5H8.8c-.857 0-1.439 0-1.889.038ZM15 4.914 17.586 7.5H15.6a8.194 8.194 0 0 1-.589-.011v-.014A8.205 8.205 0 0 1 15 6.9V4.914ZM7 9.5a1 1 0 0 1 1-1h2a1 1 0 1 1 0 2H8a1 1 0 0 1-1-1Zm0 4a1 1 0 0 1 1-1h8a1 1 0 1 1 0 2H8a1 1 0 0 1-1-1Zm0 4a1 1 0 0 1 1-1h8a1 1 0 1 1 0 2H8a1 1 0 0 1-1-1Z"></path>
                                    </svg>