<svg class="nav__icon" xmlns="http://www.w3.org/2000/svg">
                                      <path fill-rule="evenodd" clip-rule="evenodd" d="M2.293 2.232a1 1 0 0 1 1.023-.241l3 1A1 1 0 0 1 7 3.939v2.586l3.11 3.11a6.5 6.5 0 0 1 9.651-6.82 1 1 0 0 1 .205 1.572l-2.628 2.628c-.21.21-.323.325-.4.414l-.008.01.009.01c.076.09.19.205.4.415l.237.237a8.143 8.143 0 0 0 .424.408l.01-.009c.09-.075.205-.19.414-.4l2.458-2.457a1 1 0 0 1 1.632.327 6.503 6.503 0 0 1-4.322 8.747l3.015 3.015a3.121 3.121 0 1 1-4.414 4.414L12 17.353l-4.793 4.793a3.121 3.121 0 0 1-4.414-4.414l6.293-6.293-3.5-3.5H3a1 1 0 0 1-.949-.683l-1-3a1 1 0 0 1 .242-1.024l1-1ZM5 5.94V4.66l-1.73-.577-.126.126.577 1.73H5Zm6.206 6.208-6.999 7a1.121 1.121 0 1 0 1.586 1.585l7.157-7.157.058-.058c.04-.041.083-.084.128-.127l.097-.097a1.998 1.998 0 0 1 .476-.355c.097-.052.216-.11.36-.154a1.97 1.97 0 0 1 .45-.078c.27-.022.538.005.787.073.104.029.209.054.316.075h.001l.059.011a4.487 4.487 0 0 0 .818.074A4.5 4.5 0 0 0 21 8.354l-1.184 1.184c-.178.178-.352.352-.511.487a2.021 2.021 0 0 1-.687.402 2 2 0 0 1-1.236 0 2.023 2.023 0 0 1-.687-.402 9.16 9.16 0 0 1-.51-.487l-.283-.283c-.179-.178-.353-.352-.488-.511a2.022 2.022 0 0 1-.402-.687 2 2 0 0 1 0-1.236c.094-.29.254-.511.402-.686.135-.16.31-.333.488-.512l1.577-1.577a4.5 4.5 0 0 0-5.394 5.27l.004.019c.045.227.084.425.109.584a1.963 1.963 0 0 1-.043.952 1.96 1.96 0 0 1-.153.36c-.144.268-.382.505-.58.7l-.058.058-.156.156v.002h-.002Zm2.208 3.792 4.793 4.793a1.121 1.121 0 0 0 1.586-1.586l-4.282-4.282a6.372 6.372 0 0 1-.275-.048 16.487 16.487 0 0 0-.584-.107 8.82 8.82 0 0 0-.28.272l-.008.008-.95.95Z"></path>
                                    </svg>